<svg width="268" height="286" viewBox="0 0 268 286" fill="none" xmlns="http://www.w3.org/2000/svg">
    <path d="M203.578 285.5H172.529C162.061 285.5 153.536 276.887 153.536 266.331V234.221C153.536 230.379 150.489 227.243 146.779 227.243H122.266C118.556 227.243 115.508 230.379 115.508 234.221V266.331C115.508 276.887 106.984 285.5 96.516 285.5H28.9836C13.3482 285.5 0.62793 272.647 0.62793 256.835V152.114C0.62793 137.362 6.14889 123.316 16.1308 112.583L112.637 9.05438C118.423 3.18007 125.976 0 134.014 0C142.053 0 149.606 3.18007 155.259 8.92188L252.781 112.495C260.422 120.578 265.502 130.692 267.533 141.734C268.196 145.312 265.811 148.801 262.189 149.463C258.611 150.126 255.122 147.741 254.46 144.163C252.914 135.683 248.983 127.865 243.109 121.638L145.719 18.1088C142.671 15.017 138.475 13.2503 134.014 13.2503C129.553 13.2503 125.358 15.017 122.222 18.2413L25.8477 121.594C18.1183 129.853 13.8782 140.674 13.8782 152.114V256.835C13.8782 265.36 20.6359 272.25 28.9836 272.25H96.5602C99.7402 272.25 102.302 269.6 102.302 266.331V234.221C102.302 223.091 111.268 213.993 122.31 213.993H146.823C157.865 213.993 166.831 223.047 166.831 234.221V266.331C166.831 269.6 169.393 272.25 172.573 272.25H203.623C207.289 272.25 210.248 275.209 210.248 278.875C210.248 282.541 207.289 285.5 203.623 285.5H203.578Z" fill="#FAFAFF"/>
    <path d="M233.783 285.465H202.959C199.305 285.465 196.354 282.506 196.354 278.84C196.354 275.174 199.305 272.215 202.959 272.215H233.783C237.437 272.215 240.387 275.174 240.387 278.84C240.387 282.506 237.437 285.465 233.783 285.465ZM257.076 276.101C255.799 276.101 254.478 275.704 253.333 274.909C250.339 272.833 249.59 268.681 251.66 265.678C253.465 263.072 254.434 259.98 254.434 256.756V239.354C254.434 235.688 257.384 232.729 261.039 232.729C264.694 232.729 267.644 235.688 267.644 239.354V256.756C267.644 262.674 265.883 268.372 262.536 273.231C261.259 275.086 259.19 276.101 257.12 276.101H257.076ZM261.039 219.478C257.384 219.478 254.434 216.519 254.434 212.853V181.936C254.434 178.27 257.384 175.311 261.039 175.311C264.694 175.311 267.644 178.27 267.644 181.936V212.853C267.644 216.519 264.694 219.478 261.039 219.478ZM261.039 162.06C257.384 162.06 254.434 159.101 254.434 155.435V152.211C254.434 148.545 257.384 145.586 261.039 145.586C264.694 145.586 267.644 148.545 267.644 152.211V155.435C267.644 159.101 264.694 162.06 261.039 162.06Z" fill="#FAFAFF"/>
    </svg>
    