<svg width="29" height="31" viewBox="0 0 29 31" fill="none" xmlns="http://www.w3.org/2000/svg">
    <path d="M22.1035 30.7334H18.761C17.6342 30.7334 16.7166 29.8063 16.7166 28.6699V25.2134C16.7166 24.7997 16.3885 24.4621 15.9891 24.4621H13.3504C12.951 24.4621 12.6229 24.7997 12.6229 25.2134V28.6699C12.6229 29.8063 11.7053 30.7334 10.5785 30.7334H3.30877C1.62566 30.7334 0.256348 29.3498 0.256348 27.6477V16.3747C0.256348 14.7866 0.850666 13.2747 1.92519 12.1193L12.3139 0.974682C12.9367 0.342327 13.7498 0 14.6151 0C15.4804 0 16.2934 0.342327 16.902 0.960419L27.4001 12.1098C28.2226 12.9799 28.7694 14.0687 28.9881 15.2573C29.0594 15.6425 28.8026 16.0181 28.4128 16.0894C28.0277 16.1607 27.652 15.904 27.5807 15.5188C27.4143 14.606 26.9912 13.7644 26.3588 13.094L15.875 1.94936C15.547 1.61655 15.0953 1.42636 14.6151 1.42636C14.1349 1.42636 13.6832 1.61655 13.3456 1.96363L2.97119 13.0893C2.13915 13.9784 1.68271 15.1432 1.68271 16.3747V27.6477C1.68271 28.5653 2.41016 29.307 3.30877 29.307H10.5832C10.9256 29.307 11.2013 29.0218 11.2013 28.6699V25.2134C11.2013 24.0152 12.1665 23.0358 13.3551 23.0358H15.9939C17.1825 23.0358 18.1477 24.0105 18.1477 25.2134V28.6699C18.1477 29.0218 18.4235 29.307 18.7658 29.307H22.1082C22.5029 29.307 22.8214 29.6256 22.8214 30.0202C22.8214 30.4148 22.5029 30.7334 22.1082 30.7334H22.1035Z" fill="#FAFAFF"/>
    <path d="M25.3547 30.7295H22.0367C21.6433 30.7295 21.3257 30.411 21.3257 30.0163C21.3257 29.6217 21.6433 29.3032 22.0367 29.3032H25.3547C25.7481 29.3032 26.0657 29.6217 26.0657 30.0163C26.0657 30.411 25.7481 30.7295 25.3547 30.7295ZM27.8622 29.7216C27.7247 29.7216 27.5825 29.6788 27.4593 29.5932C27.137 29.3697 27.0564 28.9228 27.2792 28.5995C27.4735 28.319 27.5778 27.9862 27.5778 27.6391V25.7658C27.5778 25.3712 27.8954 25.0526 28.2888 25.0526C28.6822 25.0526 28.9998 25.3712 28.9998 25.7658V27.6391C28.9998 28.2762 28.8102 28.8895 28.45 29.4125C28.3125 29.6122 28.0897 29.7216 27.8669 29.7216H27.8622ZM28.2888 23.6262C27.8954 23.6262 27.5778 23.3077 27.5778 22.9131V19.5849C27.5778 19.1902 27.8954 18.8717 28.2888 18.8717C28.6822 18.8717 28.9998 19.1902 28.9998 19.5849V22.9131C28.9998 23.3077 28.6822 23.6262 28.2888 23.6262ZM28.2888 17.4453C27.8954 17.4453 27.5778 17.1268 27.5778 16.7321V16.3851C27.5778 15.9904 27.8954 15.6719 28.2888 15.6719C28.6822 15.6719 28.9998 15.9904 28.9998 16.3851V16.7321C28.9998 17.1268 28.6822 17.4453 28.2888 17.4453Z" fill="#FAFAFF"/>
    </svg>
    