<svg width="54" height="55" viewBox="0 0 54 55" fill="none" xmlns="http://www.w3.org/2000/svg">
    <path d="M18.8716 19.0429C16.4933 19.0429 14.561 17.1106 14.561 14.7324C14.561 12.3542 16.4933 10.4219 18.8716 10.4219C21.2498 10.4219 23.1821 12.3542 23.1821 14.7324C23.1821 17.1106 21.2498 19.0429 18.8716 19.0429ZM18.8716 11.6959C17.1983 11.6959 15.8351 13.0591 15.8351 14.7324C15.8351 16.4056 17.1983 17.7689 18.8716 17.7689C20.5448 17.7689 21.908 16.4056 21.908 14.7324C21.908 13.0591 20.5448 11.6959 18.8716 11.6959Z" fill="#FAFAFF"/>
    <path d="M37.269 21.0663C34.8908 21.0663 32.9585 19.134 32.9585 16.7558C32.9585 14.3776 34.8908 12.4453 37.269 12.4453C39.6472 12.4453 41.5795 14.3776 41.5795 16.7558C41.5795 19.134 39.6472 21.0663 37.269 21.0663ZM37.269 13.7151C35.5958 13.7151 34.2325 15.0783 34.2325 16.7516C34.2325 18.4248 35.5958 19.7881 37.269 19.7881C38.9423 19.7881 40.3055 18.4248 40.3055 16.7516C40.3055 15.0783 38.9423 13.7151 37.269 13.7151Z" fill="#FAFAFF"/>
    <path d="M24.9443 28.6445C22.5661 28.6445 20.6338 26.7122 20.6338 24.334C20.6338 21.9557 22.5661 20.0234 24.9443 20.0234C27.3225 20.0234 29.2548 21.9557 29.2548 24.334C29.2548 26.7122 27.3225 28.6445 24.9443 28.6445ZM24.9443 21.2932C23.2711 21.2932 21.9078 22.6565 21.9078 24.3297C21.9078 26.003 23.2711 27.3662 24.9443 27.3662C26.6176 27.3662 27.9808 26.003 27.9808 24.3297C27.9808 22.6565 26.6176 21.2932 24.9443 21.2932Z" fill="#FAFAFF"/>
    <path d="M27.6668 34.6002C26.3545 34.6002 25.2886 33.5342 25.2886 32.222C25.2886 30.9097 26.3545 29.8438 27.6668 29.8438C28.9791 29.8438 30.045 30.9097 30.045 32.222C30.045 33.5342 28.9791 34.6002 27.6668 34.6002ZM27.6668 31.1135C27.0595 31.1135 26.5626 31.6104 26.5626 32.2177C26.5626 32.825 27.0595 33.3219 27.6668 33.3219C28.2741 33.3219 28.771 32.825 28.771 32.2177C28.771 31.6104 28.2741 31.1135 27.6668 31.1135Z" fill="#FAFAFF"/>
    <path d="M23.8105 44.4179C21.4323 44.4179 19.5 42.4856 19.5 40.1074C19.5 37.7292 21.4323 35.7969 23.8105 35.7969C26.1887 35.7969 28.121 37.7292 28.121 40.1074C28.121 42.4856 26.1887 44.4179 23.8105 44.4179ZM23.8105 37.0709C22.1373 37.0709 20.774 38.4341 20.774 40.1074C20.774 41.7806 22.1373 43.1439 23.8105 43.1439C25.4838 43.1439 26.847 41.7806 26.847 40.1074C26.847 38.4341 25.4838 37.0709 23.8105 37.0709Z" fill="#FAFAFF"/>
    <path d="M12.8284 31.4458C11.2698 31.4458 10 30.176 10 28.6174C10 27.0589 11.2698 25.7891 12.8284 25.7891C14.387 25.7891 15.6568 27.0589 15.6568 28.6174C15.6568 30.176 14.387 31.4458 12.8284 31.4458ZM12.8284 27.0674C11.9705 27.0674 11.274 27.7638 11.274 28.6217C11.274 29.4795 11.9705 30.176 12.8284 30.176C13.6862 30.176 14.3827 29.4795 14.3827 28.6217C14.3827 27.7638 13.6862 27.0674 12.8284 27.0674Z" fill="#FAFAFF"/>
    <path d="M38.6574 38.2865C35.7101 38.2865 33.3149 35.8871 33.3149 32.9441C33.3149 30.001 35.7144 27.6016 38.6574 27.6016C41.6005 27.6016 43.9999 30.001 43.9999 32.9441C43.9999 35.8871 41.6005 38.2865 38.6574 38.2865ZM38.6574 28.8714C36.4109 28.8714 34.589 30.6975 34.589 32.9398C34.589 35.1821 36.4151 37.0083 38.6574 37.0083C40.8998 37.0083 42.7259 35.1821 42.7259 32.9398C42.7259 30.6975 40.8998 28.8714 38.6574 28.8714Z" fill="#FAFAFF"/>
    <path d="M38.2538 28.8887C37.9268 28.8887 37.6466 28.6382 37.6211 28.3069L36.9501 20.4716C36.9203 20.1191 37.1794 19.8133 37.5319 19.7836C37.8844 19.7538 38.1901 20.0129 38.2199 20.3654L38.8909 28.2008C38.9206 28.5532 38.6615 28.859 38.3091 28.8887C38.2921 28.8887 38.2708 28.8887 38.2538 28.8887Z" fill="#FAFAFF"/>
    <path d="M27.1233 39.1462C26.8855 39.1462 26.6604 39.0145 26.55 38.7852C26.3971 38.4667 26.5287 38.0887 26.8473 37.9358L34.1433 34.4152C34.4575 34.2623 34.8398 34.394 34.9926 34.7125C35.1455 35.031 35.0139 35.409 34.6954 35.5619L27.3993 39.0825C27.3102 39.1249 27.2167 39.1462 27.1233 39.1462Z" fill="#FAFAFF"/>
    <path d="M21.271 38.0921C21.1054 38.0921 20.9355 38.0284 20.8123 37.8968L13.5333 30.295C13.2912 30.0401 13.2997 29.6367 13.5545 29.3946C13.8093 29.1526 14.2128 29.1611 14.4549 29.4159L21.7339 37.0177C21.976 37.2725 21.9675 37.6759 21.7127 37.918C21.5895 38.0369 21.4324 38.0964 21.271 38.0964V38.0921Z" fill="#FAFAFF"/>
    <path d="M12.6799 26.6325C12.578 26.6325 12.4718 26.607 12.3741 26.5518C12.0641 26.3819 11.9537 25.9955 12.1236 25.6854L17.3429 16.1896C17.5128 15.8795 17.8992 15.7691 18.2093 15.939C18.5193 16.1089 18.6297 16.4953 18.4598 16.8053L13.2405 26.3012C13.1258 26.5136 12.905 26.6325 12.6799 26.6325Z" fill="#FAFAFF"/>
    <path d="M34.6742 31.076C34.5595 31.076 34.4406 31.0463 34.3344 30.9783L26.7836 26.2389C26.4863 26.052 26.3971 25.6571 26.584 25.3598C26.7709 25.0625 27.1658 24.9733 27.4631 25.1602L35.0139 29.8996C35.3112 30.0865 35.4004 30.4814 35.2135 30.7787C35.0946 30.9698 34.8865 31.076 34.6742 31.076Z" fill="#FAFAFF"/>
    <path d="M28.0701 23.0501C27.8578 23.0501 27.6454 22.944 27.5265 22.7486C27.3439 22.4471 27.4373 22.0564 27.7346 21.8738L35.2387 17.2575C35.536 17.0749 35.931 17.1683 36.1136 17.4656C36.2962 17.7671 36.2028 18.1578 35.9055 18.3404L28.4014 22.9567C28.2994 23.0204 28.1805 23.0501 28.0701 23.0501Z" fill="#FAFAFF"/>
    <path d="M27.4292 32.1591C27.1659 32.1591 26.9195 31.9935 26.8261 31.7302L25.5436 28.01C25.4289 27.6787 25.6073 27.3135 25.9385 27.1988C26.2698 27.0842 26.635 27.2625 26.7497 27.5938L28.0322 31.314C28.1469 31.6453 27.9685 32.0105 27.6373 32.1252C27.5693 32.1506 27.4971 32.1591 27.4292 32.1591Z" fill="#FAFAFF"/>
    </svg>
    