<svg width="286" height="286" viewBox="0 0 286 286" fill="none" xmlns="http://www.w3.org/2000/svg">
    <path d="M74.5075 72.3998C54.5352 72.3998 38.3076 56.1722 38.3076 36.1999C38.3076 16.2275 54.5352 0 74.5075 0C94.4799 0 110.707 16.2275 110.707 36.1999C110.707 56.1722 94.4799 72.3998 74.5075 72.3998ZM74.5075 10.6995C60.4555 10.6995 49.0071 22.1479 49.0071 36.1999C49.0071 50.2519 60.4555 61.7003 74.5075 61.7003C88.5595 61.7003 100.008 50.2519 100.008 36.1999C100.008 22.1479 88.5595 10.6995 74.5075 10.6995Z" fill="#FAFAFF"/>
    <path d="M229.003 89.392C209.03 89.392 192.803 73.1644 192.803 53.1921C192.803 33.2197 209.03 16.9922 229.003 16.9922C248.975 16.9922 265.203 33.2197 265.203 53.1921C265.203 73.1644 248.975 89.392 229.003 89.392ZM229.003 27.656C214.951 27.656 203.502 39.1044 203.502 53.1564C203.502 67.2084 214.951 78.6568 229.003 78.6568C243.055 78.6568 254.503 67.2084 254.503 53.1564C254.503 39.1044 243.055 27.656 229.003 27.656Z" fill="#FAFAFF"/>
    <path d="M125.503 153.033C105.53 153.033 89.3027 136.805 89.3027 116.833C89.3027 96.8603 105.53 80.6328 125.503 80.6328C145.475 80.6328 161.703 96.8603 161.703 116.833C161.703 136.805 145.475 153.033 125.503 153.033ZM125.503 91.2966C111.451 91.2966 100.002 102.745 100.002 116.797C100.002 130.849 111.451 142.297 125.503 142.297C139.555 142.297 151.003 130.849 151.003 116.797C151.003 102.745 139.555 91.2966 125.503 91.2966Z" fill="#FAFAFF"/>
    <path d="M148.362 203.046C137.342 203.046 128.39 194.094 128.39 183.074C128.39 172.053 137.342 163.102 148.362 163.102C159.382 163.102 168.334 172.053 168.334 183.074C168.334 194.094 159.382 203.046 148.362 203.046ZM148.362 173.765C143.262 173.765 139.089 177.938 139.089 183.038C139.089 188.138 143.262 192.311 148.362 192.311C153.462 192.311 157.635 188.138 157.635 183.038C157.635 177.938 153.462 173.765 148.362 173.765Z" fill="#FAFAFF"/>
    <path d="M115.981 285.501C96.0088 285.501 79.7812 269.274 79.7812 249.301C79.7812 229.329 96.0088 213.102 115.981 213.102C135.953 213.102 152.181 229.329 152.181 249.301C152.181 269.274 135.953 285.501 115.981 285.501ZM115.981 223.801C101.929 223.801 90.4807 235.249 90.4807 249.301C90.4807 263.353 101.929 274.802 115.981 274.802C130.033 274.802 141.482 263.353 141.482 249.301C141.482 235.249 130.033 223.801 115.981 223.801Z" fill="#FAFAFF"/>
    <path d="M23.7528 176.553C10.6638 176.553 0 165.889 0 152.8C0 139.711 10.6638 129.047 23.7528 129.047C36.8419 129.047 47.5057 139.711 47.5057 152.8C47.5057 165.889 36.8419 176.553 23.7528 176.553ZM23.7528 139.782C16.5485 139.782 10.6995 145.631 10.6995 152.835C10.6995 160.04 16.5485 165.889 23.7528 165.889C30.9571 165.889 36.8062 160.04 36.8062 152.835C36.8062 145.631 30.9571 139.782 23.7528 139.782Z" fill="#FAFAFF"/>
    <path d="M240.67 234.014C215.919 234.014 195.804 213.863 195.804 189.148C195.804 164.432 215.954 144.281 240.67 144.281C265.386 144.281 285.537 164.432 285.537 189.148C285.537 213.863 265.386 234.014 240.67 234.014ZM240.67 154.945C221.803 154.945 206.503 170.281 206.503 189.112C206.503 207.943 221.839 223.279 240.67 223.279C259.501 223.279 274.837 207.943 274.837 189.112C274.837 170.281 259.501 154.945 240.67 154.945Z" fill="#FAFAFF"/>
    <path d="M237.28 155.087C234.534 155.087 232.18 152.982 231.966 150.201L226.331 84.3988C226.081 81.4386 228.257 78.8707 231.217 78.6211C234.177 78.3714 236.745 80.547 236.995 83.5072L242.63 149.309C242.88 152.269 240.704 154.837 237.744 155.087C237.601 155.087 237.423 155.087 237.28 155.087Z" fill="#FAFAFF"/>
    <path d="M143.802 241.226C141.805 241.226 139.915 240.121 138.988 238.195C137.704 235.52 138.809 232.346 141.484 231.062L202.757 201.495C205.396 200.212 208.606 201.317 209.889 203.992C211.173 206.667 210.068 209.841 207.393 211.125L146.121 240.691C145.372 241.048 144.587 241.226 143.802 241.226Z" fill="#FAFAFF"/>
    <path d="M94.6538 232.378C93.2629 232.378 91.8363 231.843 90.802 230.738L29.6723 166.897C27.6394 164.757 27.7108 161.369 29.8507 159.336C31.9906 157.304 35.3787 157.375 37.4116 159.515L98.5413 223.355C100.574 225.495 100.503 228.883 98.363 230.916C97.3287 231.915 96.0091 232.414 94.6538 232.414V232.378Z" fill="#FAFAFF"/>
    <path d="M22.5048 136.137C21.6489 136.137 20.7572 135.923 19.937 135.459C17.3334 134.033 16.4061 130.787 17.8327 128.184L61.6649 48.437C63.0915 45.8334 66.337 44.9061 68.9405 46.3327C71.5441 47.7593 72.4714 51.0048 71.0448 53.6084L27.2126 133.355C26.2496 135.138 24.3951 136.137 22.5048 136.137Z" fill="#FAFAFF"/>
    <path d="M207.215 173.455C206.252 173.455 205.254 173.205 204.362 172.634L140.95 132.832C138.453 131.263 137.704 127.946 139.273 125.45C140.843 122.953 144.16 122.204 146.656 123.773L210.068 163.576C212.565 165.145 213.314 168.462 211.745 170.958C210.746 172.563 208.998 173.455 207.215 173.455Z" fill="#FAFAFF"/>
    <path d="M151.758 106.056C149.974 106.056 148.191 105.165 147.193 103.524C145.659 100.992 146.444 97.7108 148.94 96.1772L211.96 57.4094C214.457 55.8758 217.773 56.6604 219.307 59.157C220.841 61.6892 220.056 64.9704 217.559 66.504L154.54 105.272C153.684 105.807 152.685 106.056 151.758 106.056Z" fill="#FAFAFF"/>
    <path d="M146.37 182.558C144.159 182.558 142.091 181.167 141.306 178.956L130.535 147.713C129.572 144.932 131.07 141.864 133.852 140.901C136.634 139.939 139.701 141.436 140.664 144.218L151.435 175.461C152.398 178.243 150.9 181.31 148.118 182.273C147.547 182.487 146.941 182.558 146.37 182.558Z" fill="#FAFAFF"/>
    </svg>
    