<svg width="395" height="286" viewBox="0 0 395 286" fill="none" xmlns="http://www.w3.org/2000/svg">
    <path d="M394.105 226.813V230.748C394.105 231.619 393.957 256.609 393.957 256.609C393.957 272.558 381.146 285.503 365.364 285.503H251.377C235.595 285.503 222.784 272.558 222.784 256.609V229.336H222.873C222.784 228.465 222.784 227.684 222.784 226.813C222.784 211.885 226.529 197.828 233.098 185.544C237.794 176.833 249.237 174.37 257.262 180.077C271.737 190.41 289.393 196.477 308.415 196.477C327.438 196.477 345.152 190.41 359.687 180.077C367.712 174.37 379.096 176.833 383.792 185.544C390.42 197.828 394.105 211.885 394.105 226.813Z" fill="#FAFAFF"/>
    <path d="M308.449 154.153C333.681 154.153 354.135 133.698 354.135 108.467C354.135 83.2354 333.681 62.7812 308.449 62.7812C283.218 62.7812 262.764 83.2354 262.764 108.467C262.764 133.698 283.218 154.153 308.449 154.153Z" fill="#FAFAFF"/>
    <path d="M171.386 226.813V230.748C171.386 231.619 171.237 256.609 171.237 256.609C171.237 272.558 158.427 285.503 142.644 285.503H28.6576C12.8749 285.503 0.0644531 272.558 0.0644531 256.609V229.336H0.153621C0.0644531 228.465 0.0644531 227.684 0.0644531 226.813C0.0644531 211.885 3.80951 197.828 10.3782 185.544C15.0744 176.833 26.5176 174.37 34.5427 180.077C49.0176 190.41 66.6729 196.477 85.6954 196.477C104.718 196.477 122.433 190.41 136.967 180.077C144.992 174.37 156.376 176.833 161.072 185.544C167.7 197.828 171.386 211.885 171.386 226.813Z" fill="#FAFAFF"/>
    <path d="M85.7296 154.153C110.961 154.153 131.415 133.698 131.415 108.467C131.415 83.2354 110.961 62.7812 85.7296 62.7812C60.4981 62.7812 40.0439 83.2354 40.0439 108.467C40.0439 133.698 60.4981 154.153 85.7296 154.153Z" fill="#FAFAFF"/>
    <path d="M274.855 167.881C272.602 167.881 270.782 166.062 270.782 163.808V160.251C270.782 147.843 267.687 135.624 261.85 124.872C260.383 122.157 257.885 120.284 254.817 119.578C251.668 118.845 248.382 119.496 245.776 121.343C231.277 131.525 214.28 136.928 196.604 136.928C178.928 136.928 161.958 131.552 147.513 121.37C144.907 119.523 141.594 118.872 138.417 119.605C135.349 120.311 132.824 122.211 131.358 124.899C125.52 135.706 122.425 147.951 122.425 160.278C122.425 162.532 120.606 164.351 118.352 164.351C116.098 164.351 114.279 162.532 114.279 160.278C114.279 146.594 117.7 133.018 124.19 121.017C126.742 116.292 131.249 112.898 136.571 111.677C142.001 110.428 147.703 111.514 152.21 114.718C165.27 123.922 180.611 128.782 196.604 128.782C212.596 128.782 227.991 123.922 241.078 114.69C245.586 111.514 251.26 110.4 256.664 111.649C261.958 112.871 266.465 116.292 269.018 120.99C275.507 132.909 278.928 146.485 278.928 160.251V163.808C278.928 166.062 277.109 167.881 274.855 167.881Z" fill="#FAFAFF"/>
    <path d="M187.942 217.285H185.227C182.973 217.285 181.154 215.466 181.154 213.213C181.154 210.959 182.973 209.14 185.227 209.14H187.942C190.196 209.14 192.015 210.959 192.015 213.213C192.015 215.466 190.196 217.285 187.942 217.285ZM168.936 217.285H166.221C163.967 217.285 162.148 215.466 162.148 213.213C162.148 210.959 163.967 209.14 166.221 209.14H168.936C171.19 209.14 173.009 210.959 173.009 213.213C173.009 215.466 171.19 217.285 168.936 217.285ZM149.93 217.285H147.214C144.961 217.285 143.142 215.466 143.142 213.213C143.142 210.959 144.961 209.14 147.214 209.14H149.93C152.183 209.14 154.002 210.959 154.002 213.213C154.002 215.466 152.183 217.285 149.93 217.285ZM131.521 213.864C130.842 213.864 130.136 213.701 129.511 213.321C128.615 212.805 127.719 212.235 126.878 211.638C125.059 210.335 124.624 207.782 125.955 205.963C127.258 204.144 129.81 203.71 131.629 205.04C132.254 205.474 132.905 205.909 133.557 206.289C135.512 207.402 136.191 209.9 135.078 211.855C134.317 213.158 132.96 213.919 131.548 213.919L131.521 213.864ZM119.71 199.501C117.999 199.501 116.424 198.415 115.854 196.732C115.528 195.754 115.23 194.749 115.012 193.718C114.524 191.518 115.908 189.346 118.108 188.858C120.307 188.369 122.479 189.753 122.968 191.953C123.131 192.713 123.348 193.446 123.592 194.152C124.298 196.297 123.158 198.605 121.04 199.311C120.606 199.447 120.171 199.528 119.737 199.528L119.71 199.501ZM118.352 180.658C116.098 180.658 114.279 178.838 114.279 176.585V173.87C114.279 171.616 116.098 169.797 118.352 169.797C120.606 169.797 122.425 171.616 122.425 173.87V176.585C122.425 178.838 120.606 180.658 118.352 180.658Z" fill="#FAFAFF"/>
    <path d="M248.597 217.296H205.126C202.873 217.296 201.054 215.477 201.054 213.223C201.054 210.97 202.873 209.15 205.126 209.15H248.597C260.761 209.15 270.644 199.267 270.644 187.103C270.644 187.103 270.78 164.513 270.78 163.752C270.78 161.499 272.599 159.68 274.852 159.68C277.106 159.68 278.925 161.499 278.925 163.752C278.925 164.513 278.789 187.13 278.789 187.13C278.789 203.747 265.241 217.296 248.597 217.296Z" fill="#FAFAFF"/>
    <path d="M215.661 217.31H167.901C165.647 217.31 163.828 215.49 163.828 213.237C163.828 210.983 165.647 209.164 167.901 209.164H215.661C217.915 209.164 219.734 210.983 219.734 213.237C219.734 215.49 217.915 217.31 215.661 217.31Z" fill="#FAFAFF"/>
    <path d="M196.606 94.7599C170.485 94.7599 149.226 73.5 149.226 47.38C149.226 21.2599 170.485 0 196.606 0C222.726 0 243.986 21.2599 243.986 47.38C243.986 73.5 222.726 94.7599 196.606 94.7599ZM196.606 8.14555C174.966 8.14555 157.371 25.7399 157.371 47.38C157.371 69.02 174.966 86.6144 196.606 86.6144C218.246 86.6144 235.84 69.02 235.84 47.38C235.84 25.7399 218.246 8.14555 196.606 8.14555Z" fill="#FAFAFF"/>
    </svg>
    