<svg width="39" height="49" viewBox="0 0 39 49" fill="none" xmlns="http://www.w3.org/2000/svg">
    <path d="M38.9743 32.757V33.1364C38.9743 33.2204 38.96 35.6304 38.96 35.6304C38.96 37.1684 37.7246 38.4169 36.2026 38.4169H25.2101C23.688 38.4169 22.4526 37.1684 22.4526 35.6304V33.0003H22.4612C22.4526 32.9163 22.4526 32.841 22.4526 32.757C22.4526 31.3174 22.8138 29.9618 23.4473 28.7771C23.9001 27.9371 25.0037 27.6995 25.7776 28.2499C27.1735 29.2463 28.8762 29.8314 30.7106 29.8314C32.5451 29.8314 34.2534 29.2463 35.6551 28.2499C36.429 27.6995 37.5268 27.9371 37.9797 28.7771C38.6189 29.9618 38.9743 31.3174 38.9743 32.757Z" fill="#FAFAFF"/>
    <path d="M30.7134 25.7491C33.1467 25.7491 35.1192 23.7765 35.1192 21.3433C35.1192 18.91 33.1467 16.9375 30.7134 16.9375C28.2802 16.9375 26.3076 18.91 26.3076 21.3433C26.3076 23.7765 28.2802 25.7491 30.7134 25.7491Z" fill="#FAFAFF"/>
    <path d="M17.4958 32.757V33.1364C17.4958 33.2204 17.4815 35.6304 17.4815 35.6304C17.4815 37.1684 16.2461 38.4169 14.7241 38.4169H3.73156C2.20952 38.4169 0.974121 37.1684 0.974121 35.6304V33.0003H0.98272C0.974121 32.9163 0.974121 32.841 0.974121 32.757C0.974121 31.3174 1.33528 29.9618 1.96875 28.7771C2.42163 27.9371 3.52518 27.6995 4.2991 28.2499C5.69502 29.2463 7.39764 29.8314 9.23211 29.8314C11.0666 29.8314 12.7749 29.2463 14.1766 28.2499C14.9505 27.6995 16.0483 27.9371 16.5012 28.7771C17.1404 29.9618 17.4958 31.3174 17.4958 32.757Z" fill="#FAFAFF"/>
    <path d="M9.23489 25.7491C11.6681 25.7491 13.6407 23.7765 13.6407 21.3433C13.6407 18.91 11.6681 16.9375 9.23489 16.9375C6.80164 16.9375 4.8291 18.91 4.8291 21.3433C4.8291 23.7765 6.80164 25.7491 9.23489 25.7491Z" fill="#FAFAFF"/>
    <path d="M27.4742 27.0727C27.2569 27.0727 27.0815 26.8972 27.0815 26.6799V26.3369C27.0815 25.1403 26.783 23.962 26.22 22.9251C26.0786 22.6632 25.8377 22.4825 25.5418 22.4145C25.2381 22.3438 24.9212 22.4066 24.6699 22.5847C23.2716 23.5666 21.6325 24.0876 19.9279 24.0876C18.2233 24.0876 16.5868 23.5692 15.1937 22.5873C14.9424 22.4092 14.6229 22.3464 14.3166 22.4171C14.0207 22.4852 13.7772 22.6684 13.6358 22.9277C13.0728 23.9698 12.7743 25.1507 12.7743 26.3395C12.7743 26.5568 12.5989 26.7323 12.3815 26.7323C12.1642 26.7323 11.9888 26.5568 11.9888 26.3395C11.9888 25.0198 12.3187 23.7106 12.9445 22.5532C13.1906 22.0976 13.6253 21.7703 14.1385 21.6525C14.6622 21.532 15.2121 21.6368 15.6467 21.9458C16.9062 22.8334 18.3856 23.3021 19.9279 23.3021C21.4701 23.3021 22.9548 22.8334 24.2169 21.9431C24.6516 21.6368 25.1988 21.5294 25.7199 21.6499C26.2305 21.7677 26.6651 22.0976 26.9113 22.5506C27.5371 23.7001 27.867 25.0093 27.867 26.3369V26.6799C27.867 26.8972 27.6916 27.0727 27.4742 27.0727Z" fill="#FAFAFF"/>
    <path d="M19.0926 31.8375H18.8308C18.6134 31.8375 18.438 31.662 18.438 31.4447C18.438 31.2274 18.6134 31.0519 18.8308 31.0519H19.0926C19.3099 31.0519 19.4854 31.2274 19.4854 31.4447C19.4854 31.662 19.3099 31.8375 19.0926 31.8375ZM17.2597 31.8375H16.9978C16.7805 31.8375 16.6051 31.662 16.6051 31.4447C16.6051 31.2274 16.7805 31.0519 16.9978 31.0519H17.2597C17.477 31.0519 17.6525 31.2274 17.6525 31.4447C17.6525 31.662 17.477 31.8375 17.2597 31.8375ZM15.4268 31.8375H15.1649C14.9476 31.8375 14.7722 31.662 14.7722 31.4447C14.7722 31.2274 14.9476 31.0519 15.1649 31.0519H15.4268C15.6441 31.0519 15.8195 31.2274 15.8195 31.4447C15.8195 31.662 15.6441 31.8375 15.4268 31.8375ZM13.6515 31.5075C13.586 31.5075 13.5179 31.4918 13.4577 31.4552C13.3713 31.4054 13.2849 31.3504 13.2037 31.2928C13.0283 31.1671 12.9864 30.921 13.1147 30.7456C13.2404 30.5701 13.4865 30.5282 13.662 30.6566C13.7222 30.6984 13.785 30.7403 13.8479 30.777C14.0364 30.8844 14.1019 31.1253 13.9945 31.3138C13.9212 31.4395 13.7903 31.5128 13.6541 31.5128L13.6515 31.5075ZM12.5125 30.1224C12.3475 30.1224 12.1956 30.0177 12.1406 29.8553C12.1092 29.761 12.0804 29.6642 12.0595 29.5647C12.0123 29.3526 12.1459 29.1431 12.358 29.096C12.5701 29.0488 12.7795 29.1824 12.8267 29.3945C12.8424 29.4678 12.8633 29.5385 12.8869 29.6066C12.955 29.8134 12.845 30.036 12.6408 30.1041C12.5989 30.1172 12.557 30.125 12.5151 30.125L12.5125 30.1224ZM12.3815 28.3052C12.1642 28.3052 11.9888 28.1298 11.9888 27.9124V27.6506C11.9888 27.4332 12.1642 27.2578 12.3815 27.2578C12.5989 27.2578 12.7743 27.4332 12.7743 27.6506V27.9124C12.7743 28.1298 12.5989 28.3052 12.3815 28.3052Z" fill="#FAFAFF"/>
    <path d="M24.9423 31.8376H20.7502C20.5329 31.8376 20.3574 31.6622 20.3574 31.4448C20.3574 31.2275 20.5329 31.0521 20.7502 31.0521H24.9423C26.1154 31.0521 27.0685 30.0989 27.0685 28.9259C27.0685 28.9259 27.0816 26.7473 27.0816 26.674C27.0816 26.4567 27.257 26.2812 27.4743 26.2812C27.6917 26.2812 27.8671 26.4567 27.8671 26.674C27.8671 26.7473 27.854 28.9285 27.854 28.9285C27.854 30.531 26.5474 31.8376 24.9423 31.8376Z" fill="#FAFAFF"/>
    <path d="M21.7657 31.8402H17.1599C16.9425 31.8402 16.7671 31.6648 16.7671 31.4475C16.7671 31.2301 16.9425 31.0547 17.1599 31.0547H21.7657C21.983 31.0547 22.1585 31.2301 22.1585 31.4475C22.1585 31.6648 21.983 31.8402 21.7657 31.8402Z" fill="#FAFAFF"/>
    <path d="M19.9276 20.0212C17.4086 20.0212 15.3584 17.9709 15.3584 15.452C15.3584 12.9331 17.4086 10.8828 19.9276 10.8828C22.4465 10.8828 24.4968 12.9331 24.4968 15.452C24.4968 17.9709 22.4465 20.0212 19.9276 20.0212ZM19.9276 11.6683C17.8407 11.6683 16.1439 13.3651 16.1439 15.452C16.1439 17.5389 17.8407 19.2356 19.9276 19.2356C22.0145 19.2356 23.7112 17.5389 23.7112 15.452C23.7112 13.3651 22.0145 11.6683 19.9276 11.6683Z" fill="#FAFAFF"/>
    </svg>
    