<svg width="298" height="286" viewBox="0 0 298 286" fill="none" xmlns="http://www.w3.org/2000/svg">
    <path d="M258.645 123.757H54.668L79.6724 37.9456C80.809 31.6566 82.9688 25.8222 86.1512 20.5561C92.7433 9.56921 103.086 2.25727 114.565 0.438757C125.514 -1.2661 136.387 2.02996 145.177 9.75864L149.572 13.623C153.626 17.1842 159.687 17.1842 163.741 13.623L168.174 9.75864C176.963 2.02996 187.836 -1.2661 198.785 0.438757C210.265 2.21938 220.645 9.56921 227.237 20.5561C230.382 25.8222 232.579 31.6566 233.716 37.9456L258.72 123.757H258.645ZM69.8222 112.391H243.528L222.54 40.2187C221.668 35.1799 219.964 30.5579 217.463 26.3905C212.538 18.1693 205.302 12.941 197.005 11.6529C189.428 10.4785 181.85 12.8274 175.675 18.2829L171.242 22.1473C162.907 29.4592 150.367 29.4592 142.071 22.1473L137.676 18.2829C131.462 12.8274 123.885 10.4785 116.346 11.6529C108.087 12.941 100.813 18.1693 95.8876 26.3905C93.3872 30.5579 91.6824 35.2178 90.8111 40.2187L90.6594 40.8249L69.8222 112.391Z" fill="#FAFAFF"/>
    <path d="M291.908 166.202H265.388C262.243 166.202 259.705 163.663 259.705 160.519C259.705 157.374 262.243 154.836 265.388 154.836H291.908C295.052 154.836 297.591 157.374 297.591 160.519C297.591 163.663 295.052 166.202 291.908 166.202ZM242.656 166.202H216.136C212.992 166.202 210.454 163.663 210.454 160.519C210.454 157.374 212.992 154.836 216.136 154.836H242.656C245.801 154.836 248.339 157.374 248.339 160.519C248.339 163.663 245.801 166.202 242.656 166.202ZM193.405 166.202H166.885C163.74 166.202 161.202 163.663 161.202 160.519C161.202 157.374 163.74 154.836 166.885 154.836H193.405C196.549 154.836 199.088 157.374 199.088 160.519C199.088 163.663 196.549 166.202 193.405 166.202Z" fill="#FAFAFF"/>
    <path d="M166.886 166.202H5.68285C2.53834 166.202 0 163.663 0 160.519C0 157.374 2.53834 154.836 5.68285 154.836H166.886C170.031 154.836 172.569 157.374 172.569 160.519C172.569 163.663 170.031 166.202 166.886 166.202Z" fill="#FAFAFF"/>
    <path d="M92.2515 285.458C85.6594 285.458 79.3326 284.056 73.4224 281.253C57.7757 274.055 47.6221 258.143 47.6221 240.791C47.6221 216.127 67.6637 196.086 92.2515 196.086C114.074 196.086 132.6 211.695 136.275 233.214C136.729 235.79 136.919 238.328 136.919 240.791C136.919 265.455 116.877 285.496 92.2136 285.496L92.2515 285.458ZM92.2515 207.414C73.9148 207.414 58.9878 222.379 58.9878 240.753C58.9878 253.71 66.5273 265.53 78.234 270.948C82.6666 273.032 87.3643 274.093 92.2515 274.093C110.626 274.093 125.591 259.128 125.591 240.753C125.591 238.897 125.44 237.078 125.099 235.108C122.371 219.083 108.542 207.414 92.2515 207.414Z" fill="#FAFAFF"/>
    <path d="M221.063 285.441C196.437 285.441 176.357 265.4 176.357 240.736C176.357 238.274 176.585 235.735 177.002 233.159C180.677 211.64 199.203 196.031 221.025 196.031C245.65 196.031 265.73 216.073 265.73 240.736C265.73 258.126 255.576 274.038 239.816 281.236C233.982 284.002 227.617 285.441 221.025 285.441H221.063ZM221.063 207.397C204.772 207.397 190.981 219.028 188.216 235.091C187.875 237.024 187.723 238.918 187.723 240.736C187.723 259.111 202.688 274.076 221.063 274.076C225.95 274.076 230.648 273.015 235.042 270.969C246.825 265.551 254.402 253.731 254.402 240.774C254.402 222.4 239.437 207.435 221.063 207.435V207.397Z" fill="#FAFAFF"/>
    <path d="M182.61 239.828C182.08 239.828 181.549 239.752 181.019 239.601C165.448 235.017 147.907 235.017 132.298 239.601C129.305 240.472 126.122 238.767 125.251 235.736C124.38 232.706 126.084 229.561 129.115 228.69C146.77 223.499 166.547 223.499 184.239 228.69C187.232 229.561 188.975 232.743 188.104 235.736C187.384 238.199 185.11 239.828 182.648 239.828H182.61Z" fill="#FAFAFF"/>
    </svg>
    