<svg width="250" height="209" viewBox="0 0 250 209" fill="none" xmlns="http://www.w3.org/2000/svg">
    <path d="M161.735 121.067C159.575 121.067 157.416 120.839 155.294 120.385C152.225 119.741 150.293 116.71 150.937 113.641C151.581 110.572 154.612 108.602 157.681 109.284C163.098 110.459 168.705 109.246 173.176 105.95L230.308 63.8592C238.87 57.5702 240.688 45.4846 234.399 36.9225L221.367 19.2299C218.298 15.1003 213.827 12.3726 208.751 11.6148C203.674 10.8571 198.597 12.1074 194.43 15.1382L137.298 57.2292C132.411 60.8284 129.532 66.3976 129.456 72.4593C129.418 75.6038 126.804 78.18 123.697 78.0663C120.553 78.0285 118.052 75.4522 118.09 72.3077C118.242 62.6469 122.788 53.7816 130.555 48.0609L187.686 5.96988C194.278 1.12051 202.348 -0.887425 210.456 0.362803C218.525 1.57514 225.686 5.89411 230.535 12.4862L243.568 30.1788C253.569 43.7798 250.652 62.9878 237.089 72.9897L179.958 115.081C174.654 118.983 168.289 121.029 161.772 121.029L161.735 121.067Z" fill="#FAFAFF"/>
    <path d="M76.0344 147.687C74.2917 147.687 72.5869 146.891 71.4503 145.376C70.6926 144.353 70.3516 143.179 70.3516 142.004C70.3516 140.261 71.1471 138.519 72.6625 137.42L169.953 65.7782C172.491 63.9218 176.053 64.4522 177.909 66.9905C178.667 68.0134 179.008 69.1879 179.008 70.3623C179.008 72.1051 178.212 73.8478 176.697 74.9465L79.4062 146.588C78.3833 147.346 77.2089 147.687 76.0344 147.687Z" fill="#FAFAFF"/>
    <path d="M10.5307 182.32C8.788 182.32 7.08318 181.524 5.94661 180.009C-4.05521 166.408 -1.13805 147.2 12.425 137.198L69.5567 95.1071C76.7929 89.8031 85.9233 87.9088 94.6749 89.9547C97.7437 90.6745 99.6379 93.7053 98.9181 96.7741C98.1983 99.8428 95.1295 101.737 92.0986 101.017C86.6052 99.7292 80.8466 100.942 76.3003 104.275L19.1687 146.366C10.6065 152.655 8.78805 164.741 15.0771 173.303C16.9335 175.842 16.403 179.403 13.8647 181.259C12.8418 182.017 11.6674 182.358 10.4929 182.358L10.5307 182.32Z" fill="#FAFAFF"/>
    <path d="M34.9286 208.641C34.2846 208.641 33.6027 208.528 32.9586 208.3C30.0414 207.202 27.3136 205.686 24.851 203.792C22.3885 201.86 21.9339 198.299 23.8282 195.836C25.7603 193.373 29.3216 192.919 31.7842 194.851C33.3375 196.063 35.0423 197.01 36.8608 197.692C39.8159 198.791 41.2934 202.049 40.2326 205.004C39.3991 207.315 37.2017 208.717 34.8907 208.717L34.9286 208.641ZM56.7888 206.444C54.8945 206.444 53.038 205.497 51.9772 203.754C50.3102 201.102 51.1438 197.579 53.7958 195.912C54.2125 195.647 54.6292 195.343 55.0459 195.04L59.5543 191.706C62.0927 189.85 65.654 190.38 67.5103 192.919C69.3668 195.457 68.8363 199.018 66.298 200.875L61.7896 204.209C61.1455 204.701 60.4636 205.156 59.7816 205.573C58.8345 206.141 57.8117 206.444 56.7888 206.444ZM81.225 188.524C79.4822 188.524 77.7774 187.728 76.6408 186.213C74.7844 183.675 75.3148 180.113 77.8532 178.257L83.9527 173.749C86.4911 171.892 90.0523 172.423 91.9087 174.961C93.7651 177.499 93.2347 181.061 90.6964 182.917L84.5968 187.425C83.5739 188.183 82.3994 188.524 81.225 188.524ZM14.1674 187.274C12.4246 187.274 10.7197 186.478 9.58311 184.963L5.94612 180C4.08972 177.461 4.62014 173.9 7.15848 172.044C9.69683 170.187 13.2581 170.718 15.1145 173.256L18.7515 178.219C20.6079 180.757 20.0775 184.319 17.5391 186.175C16.5162 186.933 15.3418 187.274 14.1674 187.274Z" fill="#FAFAFF"/>
    <path d="M87.3263 184.021C85.5835 184.021 83.8786 183.226 82.742 181.71C80.8856 179.172 81.416 175.611 83.9544 173.754L112.179 152.993C116.688 149.659 119.529 144.582 119.946 138.975C120.173 135.831 122.939 133.482 126.045 133.747C129.19 133.974 131.501 136.74 131.274 139.847C130.592 148.712 126.083 156.857 118.923 162.123L90.698 182.885C89.6751 183.642 88.5007 183.983 87.3263 183.983V184.021Z" fill="#FAFAFF"/>
    </svg>
    