<svg width="284" height="330" viewBox="0 0 284 330" fill="none" xmlns="http://www.w3.org/2000/svg">
    <path d="M184.996 11.3657H171.736C168.591 11.3657 166.053 8.82736 166.053 5.68285C166.053 2.53834 168.591 0 171.736 0H184.996C188.14 0 190.678 2.53834 190.678 5.68285C190.678 8.82736 188.14 11.3657 184.996 11.3657Z" fill="#FAFAFF"/>
    <path d="M277.665 65.1255C274.521 65.1255 271.982 62.5872 271.982 59.4426V51.6761C271.982 47.2435 271.263 42.9245 269.861 38.7571C268.838 35.802 270.467 32.5438 273.422 31.5588C276.377 30.5359 279.635 32.1649 280.62 35.12C282.401 40.424 283.31 45.9932 283.31 51.6761V59.4426C283.31 62.5872 280.772 65.1255 277.627 65.1255H277.665ZM265.352 26.0275C263.837 26.0275 262.322 25.4213 261.185 24.209C256.639 19.3217 250.918 15.6089 244.629 13.4873C241.674 12.4644 240.083 9.24411 241.068 6.28902C242.091 3.33394 245.311 1.74274 248.266 2.72777C256.336 5.45554 263.648 10.2291 269.482 16.4803C271.604 18.7913 271.49 22.3904 269.179 24.512C268.08 25.535 266.678 26.0275 265.315 26.0275H265.352ZM227.239 11.3657H204.508C201.364 11.3657 198.825 8.82736 198.825 5.68285C198.825 2.53834 201.364 0 204.508 0H227.239C230.384 0 232.922 2.53834 232.922 5.68285C232.922 8.82736 230.384 11.3657 227.239 11.3657Z" fill="#FAFAFF"/>
    <path d="M277.663 97.9382C274.519 97.9382 271.98 95.3999 271.98 92.2553V78.9954C271.98 75.8508 274.519 73.3125 277.663 73.3125C280.808 73.3125 283.346 75.8508 283.346 78.9954V92.2553C283.346 95.3999 280.808 97.9382 277.663 97.9382Z" fill="#FAFAFF"/>
    <path d="M231.671 235.422H51.714C23.2239 235.422 0 212.236 0 183.708V51.714C0 23.186 23.186 0 51.714 0H171.774C174.918 0 177.457 2.53834 177.457 5.68285C177.457 8.82736 174.918 11.3657 171.774 11.3657H51.714C29.4751 11.3657 11.3657 29.4751 11.3657 51.714V183.746C11.3657 205.984 29.4751 224.094 51.714 224.094H231.671C253.91 224.094 272.019 205.984 272.019 183.746V92.2895C272.019 89.145 274.558 86.6067 277.702 86.6067C280.847 86.6067 283.385 89.145 283.385 92.2895V183.746C283.385 212.236 260.199 235.46 231.671 235.46V235.422Z" fill="#FAFAFF"/>
    <path d="M211.099 235.434H72.2854C69.1409 235.434 66.6025 232.896 66.6025 229.752V184.705C66.6025 184.705 66.6025 184.402 66.6025 184.251C66.6025 183.758 66.6025 183.228 66.6025 182.735C66.6025 170.233 69.747 157.845 75.6572 146.933C78.1956 142.236 82.704 138.826 87.9322 137.614C93.3119 136.363 98.9569 137.462 103.465 140.644C114.679 148.563 127.864 152.768 141.654 152.768C155.444 152.768 168.667 148.563 179.919 140.644C184.389 137.462 190.072 136.401 195.414 137.651C200.68 138.864 205.15 142.274 207.689 146.971C213.599 157.882 216.743 170.271 216.743 182.773V229.827C216.743 232.972 214.205 235.51 211.061 235.51L211.099 235.434ZM77.9682 224.069H205.416V182.698C205.416 172.052 202.764 161.557 197.725 152.313C196.702 150.457 194.959 149.131 192.838 148.638C190.64 148.108 188.291 148.563 186.473 149.851C173.289 159.133 157.793 164.058 141.654 164.058C125.515 164.058 110.057 159.133 96.9111 149.851C95.0547 148.563 92.7437 148.108 90.5084 148.6C88.3868 149.093 86.6441 150.419 85.6212 152.275C80.5824 161.557 77.9304 172.052 77.9304 182.66C77.9304 183.19 77.9304 183.683 77.9304 184.213C77.9304 184.63 77.9304 185.009 77.9304 185.425V224.031L77.9682 224.069Z" fill="#FAFAFF"/>
    <path d="M141.692 130.815C117.369 130.815 97.5928 111.039 97.5928 86.7161C97.5928 62.3935 117.369 42.6172 141.692 42.6172C166.014 42.6172 185.791 62.3935 185.791 86.7161C185.791 111.039 166.014 130.815 141.692 130.815ZM141.692 53.945C123.658 53.945 108.958 68.6446 108.958 86.6782C108.958 104.712 123.658 119.411 141.692 119.411C159.725 119.411 174.425 104.712 174.425 86.6782C174.425 68.6446 159.725 53.945 141.692 53.945Z" fill="#FAFAFF"/>
    <path d="M277.664 283.616H5.68285C2.53834 283.616 0 281.077 0 277.933C0 274.788 2.53834 272.25 5.68285 272.25H277.664C280.809 272.25 283.347 274.788 283.347 277.933C283.347 281.077 280.809 283.616 277.664 283.616Z" fill="#FAFAFF"/>
    <path d="M175.183 329.022H5.68285C2.53834 329.022 0 326.484 0 323.339C0 320.195 2.53834 317.656 5.68285 317.656H175.183C178.328 317.656 180.866 320.195 180.866 323.339C180.866 326.484 178.328 329.022 175.183 329.022Z" fill="#FAFAFF"/>
    <path d="M277.666 329.022H221.899C218.754 329.022 216.216 326.484 216.216 323.339C216.216 320.195 218.754 317.656 221.899 317.656H277.666C280.811 317.656 283.349 320.195 283.349 323.339C283.349 326.484 280.811 329.022 277.666 329.022Z" fill="#FAFAFF"/>
    </svg>
    