<svg width="138" height="43" viewBox="0 0 138 43" fill="none" xmlns="http://www.w3.org/2000/svg">
    <path d="M30.4705 2.78125L22.1503 11.0305L13.8301 2.78125V9.84834L22.1503 18.0976L30.4705 9.84834V2.78125Z" fill="#0042FF"/>
    <path d="M33.9337 13.3281L25.6963 21.6603L33.9337 29.9052H40.9906L32.7576 21.6603L40.9906 13.3281H33.9337Z" fill="#0042FF"/>
    <path d="M13.8086 33.4793V40.5508L22.1288 32.3015L30.449 40.5508V33.4793L22.1288 25.2344L13.8086 33.4793Z" fill="#0042FF"/>
    <path d="M3.29688 13.25L11.5343 21.5778L3.29688 29.91H10.3582L18.5912 21.5778L10.3582 13.25H3.29688Z" fill="#0042FF"/>
    <mask id="mask0_71_765" style="mask-type:alpha" maskUnits="userSpaceOnUse" x="47" y="4" width="97" height="30">
    <rect x="47.9551" y="4.41406" width="95.6939" height="29.3849" fill="#00101E"/>
    </mask>
    <g mask="url(#mask0_71_765)">
    <path d="M55.0234 13.6377H57.3191L57.3409 16.5126H57.4759C58.3472 14.5626 60.0809 13.1797 62.6815 13.1797C63.3698 13.1797 64.0232 13.2713 64.4937 13.3804L64.2236 15.422C63.8533 15.3303 63.2826 15.2387 62.5944 15.2387C59.6191 15.2387 57.3714 17.5421 57.3714 20.9229V29.7568H55.0234V13.6377Z" fill="#FAFAFF"/>
    <path d="M65.9575 25.6711C65.9575 22.7657 67.7871 21.3523 72.0212 20.8637L78.1503 20.157V18.8526C78.1503 16.1043 76.691 14.9788 73.5981 14.9788C70.5053 14.9788 69.3465 16.1785 68.9632 18.2986L66.6457 18.0979C67.1162 15.1184 69.1505 13.1641 73.5981 13.1641C78.0457 13.1641 80.4503 14.9003 80.4503 18.7567V29.7586H78.5336L78.233 27.1019H78.098C77.0569 28.9778 74.9921 30.208 71.9515 30.208C68.1225 30.208 65.9531 28.6113 65.9531 25.6754L65.9575 25.6711ZM78.1503 23.4855V21.7798L72.104 22.5476C69.3814 22.8879 68.3229 23.8999 68.3229 25.5576C68.3229 27.3724 69.5644 28.4019 72.2869 28.4019C75.7805 28.4019 78.1503 26.3734 78.1503 23.4855Z" fill="#FAFAFF"/>
    <path d="M83.5342 25.3755L85.8516 25.1923C86.1391 27.391 87.7988 28.4205 90.8394 28.4205C93.6099 28.4205 95.2739 27.343 95.2739 25.5326C95.2739 23.7222 94.0324 23.1987 91.8152 22.7843L89.3453 22.3393C85.8865 21.6937 84.3052 20.3413 84.3052 17.8504C84.3052 14.7138 86.7577 13.1172 90.6564 13.1172C94.8209 13.1172 97.073 14.6091 97.3082 17.7282L94.9908 17.9115C94.8209 15.835 93.379 14.9319 90.6216 14.9319C88.0341 14.9319 86.6227 15.8219 86.6227 17.6672C86.6227 19.2027 87.5113 19.9574 89.8157 20.4024L92.3858 20.8779C95.6965 21.5061 97.5783 22.5836 97.5783 25.3188C97.5783 28.3463 95.0605 30.2222 90.8263 30.2222C86.174 30.2222 83.7694 28.5165 83.5342 25.3799V25.3755Z" fill="#FAFAFF"/>
    <path d="M118.893 22.1133C118.893 16.7345 121.715 13.6023 126.52 13.6023C129.443 13.6023 131.39 14.7714 132.449 16.7388H132.601V7.13281H134.954V30.1837H132.641V27.3089H132.501C131.308 29.3505 129.461 30.6418 126.455 30.6418C121.72 30.6418 118.897 27.4921 118.897 22.1133H118.893ZM132.697 22.1307C132.697 18.3834 130.868 15.5392 126.768 15.5392C123.223 15.5392 121.31 17.6898 121.31 22.1307C121.31 26.5717 123.227 28.7092 126.786 28.7092C130.868 28.7092 132.697 25.8824 132.697 22.1307Z" fill="#FAFAFF"/>
    <path d="M101.299 9.84086V11.4375H115.299V9.84086H101.299Z" fill="#FAFAFF"/>
    <path d="M108.395 30.6274C102.793 30.6274 100.24 26.2737 100.24 22.2298C100.24 17.2174 103.56 13.7188 108.308 13.7188C114.236 13.7188 116.349 18.0201 116.349 22.0422C116.349 22.256 116.349 22.4305 116.349 22.6573H102.54V22.7053C102.732 26.2912 105.163 28.6992 108.591 28.6992C111.022 28.6992 112.729 27.7482 113.81 25.7895H116.088C115.513 27.2945 113.653 30.6187 108.399 30.6187L108.395 30.6274ZM108.282 15.6033C105.084 15.6033 102.963 17.5664 102.606 20.8556V20.908H113.927V20.86C113.814 19.2808 113.039 15.6033 108.277 15.6033H108.282Z" fill="#FAFAFF"/>
    </g>
    </svg>
    